<svg width="150" height="35" viewBox="0 0 150 35" fill="none" xmlns="http://www.w3.org/2000/svg">
<path fill-rule="evenodd" clip-rule="evenodd" d="M3.94336 6.08744C3.94336 5.48039 4.43547 4.98828 5.04252 4.98828H24.2511C28.0094 4.98828 31.056 8.03495 31.056 11.7932C31.056 15.5515 28.0094 18.5981 24.2511 18.5981H10.7483C8.20413 18.5981 6.14168 20.6606 6.14168 23.2047C6.14168 25.7489 8.20413 27.8113 10.7483 27.8113H29.9569C30.5639 27.8113 31.056 28.3035 31.056 28.9105C31.056 29.5176 30.5639 30.0097 29.9569 30.0097H10.7483C6.99003 30.0097 3.94336 26.963 3.94336 23.2047C3.94336 19.4465 6.99003 16.3998 10.7483 16.3998H24.2511C26.7953 16.3998 28.8577 14.3374 28.8577 11.7932C28.8577 9.24905 26.7953 7.18661 24.2511 7.18661H5.04252C4.43547 7.18661 3.94336 6.69449 3.94336 6.08744Z" fill="#121212"/>
<path fill-rule="evenodd" clip-rule="evenodd" d="M3.94336 11.9663C3.94336 11.3593 4.43547 10.8672 5.04252 10.8672L25.4034 10.8672C26.0105 10.8672 26.5026 11.3593 26.5026 11.9664C26.5026 12.5734 26.0105 13.0655 25.4034 13.0655L5.04252 13.0655C4.43547 13.0655 3.94336 12.5734 3.94336 11.9663Z" fill="#121212"/>
<path fill-rule="evenodd" clip-rule="evenodd" d="M8.49805 23.2144C8.49805 22.6073 8.99016 22.1152 9.59721 22.1152L29.9581 22.1152C30.5651 22.1152 31.0572 22.6073 31.0572 23.2144C31.0572 23.8215 30.5651 24.3136 29.9581 24.3136L9.59721 24.3136C8.99016 24.3136 8.49805 23.8214 8.49805 23.2144Z" fill="#121212"/>
<path d="M43.0972 27L38.9874 12.4545H42.4817L45.0385 22.6818H45.1711L47.7847 12.4545H51.2412L53.8548 22.625H53.9969L56.5158 12.4545H60.0196L55.9003 27H52.3302L49.6029 17.1705H49.4041L46.6768 27H43.0972ZM62.4131 27V12.4545H65.7369V14.8788H65.8884C66.1536 14.0391 66.6081 13.392 67.2521 12.9375C67.9023 12.4766 68.6441 12.2462 69.4775 12.2462C69.6668 12.2462 69.8783 12.2557 70.1119 12.2746C70.3518 12.2872 70.5507 12.3093 70.7085 12.3409V15.4943C70.5633 15.4438 70.3329 15.3996 70.0172 15.3617C69.7079 15.3175 69.408 15.2955 69.1176 15.2955C68.4926 15.2955 67.9307 15.4312 67.432 15.7027C66.9396 15.9678 66.5513 16.3371 66.2672 16.8106C65.9831 17.2841 65.8411 17.8302 65.8411 18.4489V27H62.4131ZM72.986 27V12.4545H76.414V27H72.986ZM74.7095 10.3902C74.1665 10.3902 73.6994 10.2102 73.3079 9.85038C72.9165 9.48422 72.7208 9.04545 72.7208 8.53409C72.7208 8.01641 72.9165 7.57765 73.3079 7.2178C73.6994 6.85164 74.1665 6.66856 74.7095 6.66856C75.2587 6.66856 75.7259 6.85164 76.111 7.2178C76.5024 7.57765 76.6981 8.01641 76.6981 8.53409C76.6981 9.04545 76.5024 9.48422 76.111 9.85038C75.7259 10.2102 75.2587 10.3902 74.7095 10.3902ZM87.2024 12.4545V15.1061H78.8406V12.4545H87.2024ZM80.905 8.9697H84.333V22.625C84.333 23.0859 84.4025 23.4394 84.5414 23.6856C84.6866 23.9255 84.876 24.0896 85.1096 24.178C85.3431 24.2664 85.602 24.3106 85.8861 24.3106C86.1007 24.3106 86.2964 24.2948 86.4732 24.2633C86.6563 24.2317 86.7952 24.2033 86.8899 24.178L87.4675 26.858C87.2844 26.9211 87.0224 26.9905 86.6815 27.0663C86.3469 27.142 85.9366 27.1862 85.4505 27.1989C84.5919 27.2241 83.8185 27.0947 83.1304 26.8106C82.4423 26.5202 81.8962 26.072 81.4921 25.4659C81.0944 24.8598 80.8987 24.1023 80.905 23.1932V8.9697ZM90.0693 27V12.4545H93.4973V27H90.0693ZM91.7928 10.3902C91.2499 10.3902 90.7827 10.2102 90.3913 9.85038C89.9999 9.48422 89.8042 9.04545 89.8042 8.53409C89.8042 8.01641 89.9999 7.57765 90.3913 7.2178C90.7827 6.85164 91.2499 6.66856 91.7928 6.66856C92.342 6.66856 92.8092 6.85164 93.1943 7.2178C93.5857 7.57765 93.7814 8.01641 93.7814 8.53409C93.7814 9.04545 93.5857 9.48422 93.1943 9.85038C92.8092 10.2102 92.342 10.3902 91.7928 10.3902ZM100.45 18.4773V27H97.0224V12.4545H100.299V14.9261H100.469C100.804 14.1117 101.337 13.4646 102.07 12.9848C102.808 12.505 103.721 12.2652 104.807 12.2652C105.81 12.2652 106.685 12.4798 107.43 12.9091C108.181 13.3384 108.762 13.9602 109.172 14.7746C109.589 15.589 109.794 16.577 109.788 17.7386V27H106.36V18.2689C106.36 17.2967 106.107 16.536 105.602 15.9867C105.103 15.4375 104.412 15.1629 103.528 15.1629C102.928 15.1629 102.395 15.2955 101.928 15.5606C101.467 15.8194 101.104 16.1951 100.839 16.6875C100.58 17.1799 100.45 17.7765 100.45 18.4773ZM119.598 32.7576C118.367 32.7576 117.31 32.5903 116.426 32.2557C115.542 31.9274 114.832 31.4855 114.295 30.9299C113.759 30.3744 113.386 29.7588 113.178 29.0833L116.265 28.3352C116.404 28.6193 116.606 28.9003 116.871 29.178C117.136 29.4621 117.493 29.6957 117.941 29.8788C118.396 30.0682 118.967 30.1629 119.655 30.1629C120.627 30.1629 121.432 29.9261 122.07 29.4527C122.707 28.9855 123.026 28.2153 123.026 27.142V24.3864H122.856C122.679 24.7399 122.42 25.1029 122.079 25.4754C121.745 25.8479 121.3 26.1604 120.744 26.4129C120.195 26.6654 119.503 26.7917 118.67 26.7917C117.553 26.7917 116.539 26.5297 115.63 26.0057C114.728 25.4754 114.008 24.6862 113.471 23.6383C112.941 22.584 112.676 21.2645 112.676 19.6799C112.676 18.0827 112.941 16.7348 113.471 15.6364C114.008 14.5316 114.731 13.6951 115.64 13.1269C116.549 12.5524 117.562 12.2652 118.68 12.2652C119.532 12.2652 120.233 12.4104 120.782 12.7008C121.337 12.9848 121.779 13.3289 122.108 13.733C122.436 14.1307 122.685 14.5063 122.856 14.8598H123.045V12.4545H126.426V27.2367C126.426 28.4804 126.129 29.5095 125.536 30.3239C124.942 31.1383 124.131 31.7475 123.102 32.1515C122.073 32.5556 120.905 32.7576 119.598 32.7576ZM119.627 24.1023C120.353 24.1023 120.971 23.9255 121.483 23.572C121.994 23.2184 122.382 22.7102 122.647 22.0473C122.913 21.3845 123.045 20.589 123.045 19.661C123.045 18.7456 122.913 17.9438 122.647 17.2557C122.389 16.5675 122.003 16.0341 121.492 15.6553C120.987 15.2702 120.365 15.0777 119.627 15.0777C118.863 15.0777 118.225 15.2765 117.714 15.6742C117.202 16.072 116.817 16.6181 116.558 17.3125C116.3 18.0006 116.17 18.7835 116.17 19.661C116.17 20.5511 116.3 21.3308 116.558 22C116.824 22.6629 117.212 23.1806 117.723 23.553C118.241 23.9192 118.875 24.1023 119.627 24.1023ZM139.357 12.4545L142.292 17.8239L145.275 12.4545H148.902L144.518 19.7273L148.978 27H145.37L142.292 21.7633L139.243 27H135.607L140.039 19.7273L135.72 12.4545H139.357Z" fill="#121212"/>
</svg>
